<?xml version="1.0" standalone="no"?>
<!DOCTYPE svg PUBLIC "-//W3C//DTD SVG 20010904//EN"
 "http://www.w3.org/TR/2001/REC-SVG-20010904/DTD/svg10.dtd">
<svg version="1.0" xmlns="http://www.w3.org/2000/svg"
 width="298.000000pt" height="298.000000pt" viewBox="0 0 298.000000 298.000000"
 preserveAspectRatio="xMidYMid meet">
<metadata>
Created by potrace 1.11, written by Peter Selinger 2001-2013
</metadata>
<g transform="translate(0.000000,298.000000) scale(0.100000,-0.100000)"
fill="#000000" stroke="none">
<path d="M20 1490 l0 -1490 1470 0 1470 0 0 1490 0 1490 -1470 0 -1470 0 0
-1490z m2780 -10 l0 -1320 -1310 0 -1310 0 0 1320 0 1320 1310 0 1310 0 0
-1320z"/>
<path d="M916 2323 c-3 -10 -19 -101 -36 -203 -17 -102 -51 -295 -75 -430 -77
-434 -144 -813 -160 -910 -9 -52 -18 -103 -21 -112 -5 -17 10 -18 209 -18
l213 0 43 233 c23 127 57 320 76 427 55 314 43 304 104 85 29 -104 64 -227 77
-272 l25 -83 158 0 157 0 169 265 c92 146 170 263 172 261 2 -2 -18 -129 -46
-282 -66 -368 -111 -623 -111 -629 0 -3 96 -5 214 -5 l214 0 5 33 c10 59 118
667 167 947 83 463 120 681 120 696 0 12 -37 14 -222 14 l-223 -1 -263 -395
c-145 -218 -267 -392 -272 -388 -5 5 -20 47 -33 94 -36 125 -208 673 -213 682
-3 5 -104 8 -224 8 -200 0 -219 -2 -224 -17z"/>
</g>
</svg>
