<svg xmlns="http://www.w3.org/2000/svg" width="2472" height="794.667" viewBox="0 0 1854 596"><path d="M0 298v298h1854V0H0v298zm1818 0v264H34V34h1784v264z"/><path d="M897 125.1c-38.2 4.7-60 11.9-79.7 26.1-27 19.4-40.7 49.3-40.5 88.8 0 20 3.7 32 13.8 45.1 8.6 11.2 22.4 21.6 37.3 27.9 4.7 2.1 21.8 8.1 37.9 13.5 42.6 14.1 56 21.3 61.8 33.1 2.2 4.6 2.8 7.1 2.8 12.3-.2 19.7-17 29.1-49.8 27.8-24.7-.9-36.4-6.9-41.3-21.2-1.2-3.7-1.5-6.9-1-14.6l.6-9.9H755.2l-.6 2.4c-1.2 5-3.6 28.3-3.6 35.6 0 11.6 3.2 25.1 8.4 35.6 3.8 7.6 5.9 10.4 12.4 16.5 12.5 11.8 28 18.4 53.2 22.9 15.3 2.8 58.7 3.9 77.1 2.1 50.9-5 84-22.4 101.2-53.4 5.1-9.1 10.5-26.2 12.3-39 2-13.9 1.5-36.3-1-45.2-2.1-7.6-6.7-17.4-10.3-22.1-3.4-4.5-13.9-14.7-19.1-18.5-10.3-7.6-31.2-15.4-65.1-24.4-42.3-11.2-57.1-21.7-57.1-40.5 0-12.8 5-20.7 16.5-26.1 15.4-7.2 45-7.8 58.2-1 5.2 2.6 10.6 8.7 12.8 14.4 1.4 3.6 1.6 6.5 1.2 12.9-.6 10.4-1.8 14.3-6.3 20.8l-3.5 5 41.5-.2 41.4-.2 3-4.6c9.9-15.2 14.1-44.1 9.2-63.4-7.8-30.6-32.3-49.7-73.5-57.2-10.6-1.9-54.6-2.8-66.5-1.3zM181.6 130.2c-.3 1.8-7.5 43.3-16.1 92.3-19.6 111.9-41.3 235.1-42.1 238.8l-.6 2.7 42.3-.2 42.3-.3 16.3-92c8.9-50.6 16.2-93.1 16.3-94.4 0-1.3.3-2.1.6-1.8.4.4 7.7 25.5 16.3 55.9l15.6 55.3h62l35.4-55.7c19.5-30.7 35.6-55.7 35.7-55.5.1.2-10.9 62.8-29.3 166.2l-3.9 22 41.9.3c23.1.1 42.2 0 42.5-.2.5-.5 59.2-332.3 59.2-334.9 0-1.6-2.8-1.7-44-1.7h-44l-53.8 80.7-53.8 80.8-8.4-27c-4.6-14.9-15.9-51.1-25-80.5l-16.6-53.5-44.1-.3-44.1-.2-.6 3.2zM585.9 129.7c-2.1 5.4-118.2 330.8-118.7 332.5-.4 1.7 2.2 1.8 44.1 1.8h44.5l2.5-8.3c1.5-4.5 6.6-20.9 11.4-36.4l8.8-28.3h39.3c36.7 0 39.2.1 39.2 1.7 0 1-.7 16.6-1.5 34.8-.8 18.1-1.5 33.8-1.5 34.7 0 1.7 2.8 1.8 44.6 1.8h44.5l-.6-120.3c-.3-66.1-.8-141.9-1.1-168.5l-.6-48.2H587l-1.1 2.7zm78.1 85c0 8.1-3.9 99.4-4.6 107l-.6 6.3h-30.4c-28.6 0-30.5-.1-30-1.8 4.3-13.7 9.4-30 19.1-61.2 6.4-20.6 13-41.7 14.6-46.8l3-9.2H664v5.7zM1049.5 155.2c.3 15.6 1 72.2 1.5 125.8.5 53.6 1.3 116.7 1.6 140.3l.7 42.7h149.5l1-2.8c.5-1.5 9.6-25.4 20.2-53.2 38.3-100.6 105.3-277.5 105.7-279.3.5-1.6-2.1-1.7-45-1.7h-45.5l-5.8 16.7c-3.2 9.3-23.2 66.5-44.4 127.3l-38.6 110.5-5.4.3-5.3.3.6-127.5.7-127.6h-92.1l.6 28.2zM1334.8 147.7c-14.3 81.2-54.9 311.3-55.4 313.6l-.6 2.7h235l.6-2.8c.3-1.5 3.1-16.9 6.1-34.2 3.1-17.3 5.9-32.5 6.2-33.7l.5-2.3-75.4-.2-75.4-.3 4.7-27c2.6-14.9 4.8-27.1 4.8-27.2.1-.2 28.1-.4 62.3-.5l62.1-.3 6.3-35c3.5-19.3 6.3-35.6 6.3-36.3.1-.9-13-1.2-62-1.2h-62.1l.5-2.8c.3-1.5 2.7-15.6 5.4-31.4l4.8-28.8 75.4-.2 75.5-.3 1.8-10.5c1-5.8 3.8-21.8 6.3-35.6s4.5-25.3 4.5-25.7c0-.4-52.8-.7-117.3-.7h-117.2l-3.7 20.7zM1590.6 130.2c-7.3 41-58.6 332.2-58.6 333.1 0 .4 48 .6 106.7.5l106.7-.3 1.8-10.5c1-5.8 3.8-21.8 6.3-35.6s4.5-25.3 4.5-25.7c0-.4-29.1-.7-64.6-.7h-64.6l.6-2.8c1.4-6.4 45.6-258.5 45.6-259.8 0-1.2-6.1-1.4-41.9-1.4h-41.9l-.6 3.2z"/></svg>
